<mxfile host="app.diagrams.net" modified="2023-08-08T15:53:41.217Z" agent="Mozilla/5.0 (Macintosh; Intel Mac OS X 10_15_7) AppleWebKit/605.1.15 (KHTML, like Gecko) Version/16.5.2 Safari/605.1.15" version="21.6.6" etag="Fzt8q8VB1-bxnatd9Q5v" type="github">
  <diagram name="Page-1" id="LLTRmvPvnx66w12X5DKE">
    <mxGraphModel>
      <root>
        <mxCell id="0" />
        <mxCell id="1" parent="0" />
      </root>
    </mxGraphModel>
  </diagram>
</mxfile>
